<svg width="150" height="150" viewBox="0 0 150 150" fill="none" xmlns="http://www.w3.org/2000/svg">
<g filter="url(#filter0_d_3239_3)">
<circle cx="75" cy="74" r="50" fill="#F4F4F4"/>
</g>
<path d="M77.3438 94H72.6562C72.0383 94 71.5255 93.5194 71.4866 92.9014L71.3837 91.1822C69.2642 90.7359 67.2272 89.8913 65.4098 88.7034L64.1739 89.794C63.7116 90.2025 63.0112 90.183 62.5695 89.7436L59.2552 86.4294C58.818 85.9922 58.7952 85.2895 59.2048 84.8249L60.2966 83.589C59.1087 81.7728 58.2641 79.7369 57.8155 77.6163L56.0986 77.5134C55.4806 77.4745 55 76.9629 55 76.3438V71.6562C55 71.0371 55.4806 70.5255 56.0986 70.4866L57.8155 70.3837C58.2641 68.263 59.1087 66.2272 60.2966 64.411L59.2048 63.1751C58.7952 62.7105 58.818 62.0078 59.2552 61.5706L62.5695 58.2564C63.0089 57.8181 63.7116 57.7987 64.1739 58.206L65.4098 59.2966C67.2272 58.1087 69.2642 57.2641 71.3837 56.8178L71.4866 55.0986C71.5255 54.4806 72.0383 54 72.6562 54H77.3438C77.9617 54 78.4745 54.4806 78.5134 55.0986L78.6163 56.8178C80.7358 57.2641 82.7728 58.1087 84.5902 59.2966L85.8261 58.206C86.2907 57.7998 86.9911 57.8192 87.4305 58.2564L90.7448 61.5706C91.182 62.0078 91.2048 62.7105 90.7952 63.1751L89.7034 64.411C90.8913 66.2272 91.7359 68.2631 92.1845 70.3837L93.9014 70.4866C94.5194 70.5255 95 71.0371 95 71.6562V76.3438C95 76.9629 94.5194 77.4745 93.9014 77.5134L92.1845 77.6163C91.7359 79.737 90.8913 81.7728 89.7034 83.589L90.7952 84.8249C91.2048 85.2895 91.182 85.9922 90.7448 86.4294L87.4305 89.7436C86.9911 90.1819 86.2884 90.2013 85.8261 89.794L84.5902 88.7034C82.7728 89.8913 80.7358 90.7359 78.6163 91.1822L78.5134 92.9014C78.4745 93.5194 77.9617 94 77.3438 94Z" fill="#4D4D99"/>
<path d="M93.9014 70.4866L92.1845 70.3837C91.7359 68.263 90.8913 66.2272 89.7034 64.411L90.7952 63.1751C91.2048 62.7105 91.182 62.0078 90.7448 61.5706L87.4305 58.2564C86.9911 57.8192 86.2907 57.7998 85.8261 58.206L84.5902 59.2966C82.7728 58.1087 80.7358 57.2641 78.6163 56.8178L78.5134 55.0986C78.4745 54.4806 77.9617 54 77.3438 54H75V94H77.3438C77.9617 94 78.4745 93.5194 78.5134 92.9014L78.6163 91.1822C80.7358 90.7359 82.7728 89.8913 84.5902 88.7034L85.8261 89.794C86.2884 90.2014 86.9911 90.182 87.4305 89.7436L90.7448 86.4294C91.182 85.9922 91.2048 85.2895 90.7952 84.8249L89.7034 83.589C90.8913 81.7728 91.7359 79.7369 92.1845 77.6163L93.9014 77.5134C94.5194 77.4745 95 76.9629 95 76.3438V71.6562C95 71.0371 94.5194 70.5255 93.9014 70.4866Z" fill="#292966"/>
<path d="M71.4844 81.0312C71.4844 80.3835 70.9602 79.8594 70.3125 79.8594C69.667 79.8594 69.1406 79.3341 69.1406 78.6875V76.3438C69.1406 75.4401 68.7884 74.6234 68.2263 74C68.7884 73.3766 69.1406 72.5599 69.1406 71.6562V69.3125C69.1406 68.6659 69.667 68.1406 70.3125 68.1406C70.9602 68.1406 71.4844 67.6165 71.4844 66.9688C71.4844 66.321 70.9602 65.7969 70.3125 65.7969C68.3739 65.7969 66.7969 67.3739 66.7969 69.3125V71.6562C66.7969 72.3028 66.2705 72.8281 65.625 72.8281C64.9773 72.8281 64.4531 73.3523 64.4531 74C64.4531 74.6477 64.9773 75.1719 65.625 75.1719C66.2705 75.1719 66.7969 75.6972 66.7969 76.3438V78.6875C66.7969 80.6261 68.3739 82.2031 70.3125 82.2031C70.9602 82.2031 71.4844 81.679 71.4844 81.0312Z" fill="#99FFFF"/>
<path d="M85.5469 74C85.5469 73.3523 85.0227 72.8281 84.375 72.8281C83.7295 72.8281 83.2031 72.3028 83.2031 71.6562V69.3125C83.2031 67.3739 81.6261 65.7969 79.6875 65.7969C79.0398 65.7969 78.5156 66.321 78.5156 66.9688C78.5156 67.6165 79.0398 68.1406 79.6875 68.1406C80.333 68.1406 80.8594 68.6659 80.8594 69.3125V71.6562C80.8594 72.5599 81.2116 73.3766 81.7738 74C81.2116 74.6234 80.8594 75.4401 80.8594 76.3438V78.6875C80.8594 79.3341 80.333 79.8594 79.6875 79.8594C79.0398 79.8594 78.5156 80.3835 78.5156 81.0312C78.5156 81.679 79.0398 82.2031 79.6875 82.2031C81.6261 82.2031 83.2031 80.6261 83.2031 78.6875V76.3438C83.2031 75.6972 83.7295 75.1719 84.375 75.1719C85.0227 75.1719 85.5469 74.6477 85.5469 74Z" fill="#66E6FF"/>
<path d="M72.6562 75.1719C73.3035 75.1719 73.8281 74.6472 73.8281 74C73.8281 73.3528 73.3035 72.8281 72.6562 72.8281C72.009 72.8281 71.4844 73.3528 71.4844 74C71.4844 74.6472 72.009 75.1719 72.6562 75.1719Z" fill="#99FFFF"/>
<path d="M77.3438 75.1719C77.991 75.1719 78.5156 74.6472 78.5156 74C78.5156 73.3528 77.991 72.8281 77.3438 72.8281C76.6965 72.8281 76.1719 73.3528 76.1719 74C76.1719 74.6472 76.6965 75.1719 77.3438 75.1719Z" fill="#66E6FF"/>
<defs>
<filter id="filter0_d_3239_3" x="0" y="0" width="150" height="150" filterUnits="userSpaceOnUse" color-interpolation-filters="sRGB">
<feFlood flood-opacity="0" result="BackgroundImageFix"/>
<feColorMatrix in="SourceAlpha" type="matrix" values="0 0 0 0 0 0 0 0 0 0 0 0 0 0 0 0 0 0 127 0" result="hardAlpha"/>
<feOffset dy="1"/>
<feGaussianBlur stdDeviation="12.5"/>
<feColorMatrix type="matrix" values="0 0 0 0 0 0 0 0 0 0 0 0 0 0 0 0 0 0 0.06 0"/>
<feBlend mode="normal" in2="BackgroundImageFix" result="effect1_dropShadow_3239_3"/>
<feBlend mode="normal" in="SourceGraphic" in2="effect1_dropShadow_3239_3" result="shape"/>
</filter>
</defs>
</svg>
