<svg width="100" height="100" viewBox="0 0 100 100" fill="none" xmlns="http://www.w3.org/2000/svg">
<circle cx="50" cy="50" r="50" fill="#F8F8F8"/>
<g opacity="0.7">
<path d="M46.0631 37.4336C44.5846 39.2493 42.6138 40.5516 40.3635 41.1998C39.6278 41.4116 39.2032 42.1796 39.4151 42.9151C39.615 43.6088 40.3095 44.0257 41.0049 43.8933C41.0469 43.8854 41.089 43.8754 41.1308 43.8633C42.2758 43.5335 43.3625 43.0673 44.3729 42.4769L46.0631 37.4336Z" fill="#00CCF2"/>
<path d="M50.0081 45.9571L51.5173 41.6467C51.9726 41.7175 52.43 41.7537 52.8856 41.7537C54.9402 41.7537 56.9583 41.0426 58.5805 39.6954L58.7666 39.5408C59.3446 39.0606 59.4636 38.2022 59.0043 37.6074C58.5221 36.983 57.6225 36.8876 57.0206 37.3875L56.809 37.5633C56.448 37.8632 56.0584 38.1173 55.6488 38.3239C54.051 39.1298 52.131 38.7126 50.9136 37.4012C50.318 36.7595 49.4664 36.3521 48.5069 36.3521C47.0109 36.3521 45.7038 37.3624 45.3272 38.81L43.4677 45.9571H50.0081Z" fill="#00CCF2"/>
<path d="M43.4675 45.957L38.0041 60.2805C37.6493 61.2109 38.2541 62.229 39.241 62.3626L39.2775 62.3675C39.9529 62.4589 40.6036 62.1164 40.9067 61.5155C42.4517 58.4526 47.0129 49.4361 47.0129 49.4361H48.8652L47.9206 55.374C47.7807 56.253 48.46 57.0487 49.3501 57.0487C50.0001 57.0487 50.5704 56.6155 50.7446 55.9895L52.5199 49.6114C53.0311 47.7749 51.6499 45.957 49.7433 45.957H48.8976H43.4675Z" fill="#FFBE52"/>
<path d="M69.2186 47.376L62.4849 48.731L63.9484 50.1942L59.2679 54.8738L55.9476 51.554L40.521 66.9782L42.762 69.2188L55.9476 56.0354L59.2679 59.3552L66.1895 52.4349L67.8634 54.1086L69.2186 47.376Z" fill="#FF6371"/>
<path d="M69.2186 47.376L62.4849 48.731L63.9484 50.1942L59.2679 54.8738L55.9476 51.554L40.521 66.9782L42.762 69.2188L55.9476 56.0354L59.2679 59.3552L66.1895 52.4349L67.8634 54.1086L69.2186 47.376Z" fill="#FF6371"/>
<path d="M50.5342 36.3529C52.0727 36.3529 53.32 35.1056 53.32 33.5671C53.32 32.0285 52.0727 30.7812 50.5342 30.7812C48.9956 30.7812 47.7484 32.0285 47.7484 33.5671C47.7484 35.1056 48.9956 36.3529 50.5342 36.3529Z" fill="#FED2A4"/>
<path d="M36.8532 51.8191L31.0788 46.0456C30.6821 45.649 30.6821 45.006 31.0788 44.6094L35.2703 40.4186C35.667 40.0219 36.3101 40.0219 36.7068 40.4186L42.4812 46.192C42.8779 46.5886 42.8779 47.2316 42.4812 47.6282L38.2896 51.8191C37.893 52.2156 37.2499 52.2156 36.8532 51.8191Z" fill="#FF9357"/>
<path d="M35.9248 47.0232L35.6859 46.7843C35.2662 46.3646 35.2662 45.6841 35.6859 45.2645L36.6848 44.2656L38.4435 46.0244L37.4447 47.0232C37.0249 47.4429 36.3445 47.4429 35.9248 47.0232Z" fill="white"/>
<path d="M69.7711 46.8236C69.5862 46.6387 69.3206 46.5587 69.0645 46.6101L62.3308 47.9651C62.0485 48.022 61.8202 48.2295 61.7369 48.505C61.6537 48.7806 61.7287 49.0797 61.9324 49.2834L62.8434 50.1942L59.2679 53.7691L56.5 51.0017C56.3534 50.8552 56.1547 50.7729 55.9475 50.7729C55.7403 50.7729 55.5416 50.8552 55.395 51.0017L51.9986 54.3976L53.2727 49.8206C53.5824 48.708 53.3592 47.5424 52.6605 46.6227C52.2325 46.0595 51.6674 45.6442 51.0286 45.4062L52.0471 42.4974C52.3281 42.5221 52.6085 42.5347 52.8856 42.5347C55.1417 42.5347 57.3415 41.7396 59.0797 40.296L59.2659 40.1414C60.1823 39.3801 60.3389 38.0572 59.6225 37.1298C59.2593 36.6594 58.7344 36.3644 58.1445 36.2993C57.5544 36.2341 56.9778 36.4072 56.5212 36.7864L56.3097 36.9621C55.998 37.2209 55.6572 37.4444 55.2967 37.6262C54.0919 38.2338 52.5874 37.9632 51.5877 36.974C53.0419 36.5236 54.1012 35.1664 54.1012 33.5664C54.1013 31.5999 52.501 30 50.5341 30C48.5672 30 46.967 31.5999 46.967 33.5664C46.967 34.349 47.221 35.0731 47.65 35.6618C46.8386 35.8364 46.1083 36.2548 45.5495 36.8462C45.5169 36.8748 45.4856 36.9057 45.4573 36.9406C44.08 38.6322 42.2437 39.8455 40.1472 40.4493C39.5795 40.6129 39.1303 40.9897 38.8607 41.4675L37.2593 39.8664C36.5586 39.1659 35.4186 39.1659 34.7179 39.8664L32.6221 41.9618L30.5264 44.0572C30.1869 44.3966 30 44.8477 30 45.3277C30 45.8077 30.187 46.2588 30.5263 46.5983L36.3007 52.3717C36.6401 52.711 37.0913 52.8979 37.5714 52.8979C38.0515 52.8979 38.5027 52.7109 38.8421 52.3717L41.0121 50.2021L39.9832 52.8997C39.8294 53.3028 40.0316 53.7542 40.4348 53.9079C40.5264 53.9429 40.6205 53.9594 40.7131 53.9594C41.0278 53.9594 41.3245 53.7679 41.4433 53.4564L44.0059 46.7381H48.8977H49.7434C50.4058 46.7381 51.0155 47.0406 51.4162 47.568C51.817 48.0953 51.945 48.7637 51.7673 49.4017L49.9919 55.7798C49.912 56.0668 49.6481 56.2673 49.3501 56.2673C49.0828 56.2673 48.9179 56.1209 48.8434 56.0336C48.769 55.9464 48.6502 55.7605 48.6922 55.4967L49.6369 49.5587C49.6728 49.3328 49.608 49.1027 49.4595 48.9288C49.3111 48.7549 49.0938 48.6548 48.8652 48.6548H47.0129C46.7182 48.6548 46.4486 48.8204 46.3156 49.0833C46.27 49.1735 41.7367 58.1354 40.2091 61.1636C40.0561 61.4668 39.7237 61.6399 39.3828 61.5932L39.3458 61.5882C39.1132 61.5568 38.9111 61.4231 38.7912 61.2213C38.6713 61.0195 38.6506 60.778 38.7342 60.5588L39.2157 59.2967C39.3694 58.8936 39.1672 58.4422 38.7641 58.2884C38.361 58.1347 37.9095 58.3369 37.7556 58.7399L37.2742 60.0021C37.0195 60.6697 37.0828 61.4049 37.4478 62.0192C37.8127 62.6335 38.4282 63.0408 39.1358 63.1365L39.1728 63.1415C39.2799 63.1561 39.3866 63.163 39.4927 63.163C40.3773 63.163 41.2 62.6688 41.6043 61.8672C42.9387 59.2221 46.5676 52.0471 47.4933 50.2171H47.9498L47.149 55.2512C47.0464 55.8962 47.2308 56.5512 47.655 57.0479C47.9278 57.3675 48.2811 57.5988 48.6722 57.7236L39.9686 66.4258C39.8221 66.5724 39.7397 66.771 39.7397 66.9782C39.7397 67.1854 39.8221 67.3841 39.9686 67.5306L42.2096 69.7712C42.3622 69.9237 42.5622 70 42.7621 70C42.962 70 43.162 69.9237 43.3146 69.7712L47.6229 65.4636C47.928 65.1586 47.928 64.6639 47.6229 64.3588C47.3177 64.0538 46.8231 64.0538 46.5178 64.3588L42.7621 68.114L41.6261 66.9781L55.9477 52.6587L58.7156 55.4262C58.8622 55.5727 59.0608 55.655 59.2681 55.655C59.4753 55.655 59.674 55.5727 59.8205 55.4262L64.5009 50.7465C64.806 50.4415 64.806 49.9468 64.5009 49.6417L64.0682 49.2091L68.2208 48.3735L67.3851 52.5255L66.742 51.8825C66.4368 51.5775 65.9423 51.5775 65.637 51.8825L59.268 58.2504L56.5001 55.483C56.1949 55.178 55.7003 55.178 55.395 55.483L50.9375 59.9397C50.6324 60.2448 50.6324 60.7395 50.9375 61.0446C51.2427 61.3496 51.7373 61.3496 52.0426 61.0446L55.9475 57.1403L58.7154 59.9077C59.0206 60.2127 59.5152 60.2127 59.8204 59.9077L66.1895 53.5398L67.311 54.6611C67.5146 54.8647 67.8139 54.9399 68.0894 54.8565C68.3651 54.7733 68.5726 54.5451 68.6295 54.2628L69.9847 47.5301C70.0362 47.2738 69.9561 47.0085 69.7711 46.8236ZM50.5341 31.5624C51.6394 31.5624 52.5385 32.4615 52.5385 33.5664C52.5385 34.6715 51.6393 35.5706 50.5341 35.5706C49.4289 35.5706 48.5297 34.6715 48.5297 33.5664C48.5297 32.4615 49.4289 31.5624 50.5341 31.5624ZM42.8028 45.409L41.8519 44.4583C42.3035 44.3109 42.7471 44.1424 43.1814 43.9539L42.8028 45.409ZM40.1659 42.6992C40.0736 42.3787 40.2593 42.043 40.5798 41.9507C41.8642 41.5807 43.0622 41.0095 44.1415 40.2635L43.7003 41.9595C42.8219 42.4448 41.8868 42.8329 40.9144 43.1129C40.8963 43.1181 40.8774 43.1226 40.8587 43.1262C40.7146 43.1536 40.5703 43.1249 40.4492 43.0559L40.2204 42.8271C40.1978 42.7872 40.1791 42.7447 40.1659 42.6992ZM35.8227 40.9711C35.8684 40.9254 35.9285 40.9026 35.9885 40.9026C36.0485 40.9026 36.1086 40.9254 36.1542 40.9711L39.0023 43.8187C39.1344 43.9991 39.2919 44.1563 39.4694 44.2857L41.9287 46.7446C42.0201 46.8359 42.0201 46.9846 41.9287 47.076L40.3854 48.619L38.6691 46.9029L38.996 46.5761C39.3011 46.271 39.3011 45.7764 38.996 45.4712L37.2372 43.7128C36.932 43.4078 36.4375 43.4078 36.1322 43.7128L35.8053 44.0396L34.2795 42.514L35.8227 40.9711ZM36.8922 46.47C36.8174 46.5448 36.7301 46.556 36.6847 46.556C36.6394 46.556 36.5522 46.5448 36.4774 46.4701V46.47L36.2384 46.2311C36.1637 46.1563 36.1524 46.0691 36.1524 46.0238C36.1524 45.9784 36.1637 45.8911 36.2385 45.8164L36.6847 45.3702L37.3385 46.0238L36.8922 46.47ZM37.7371 51.2669C37.6803 51.3236 37.6157 51.3355 37.5714 51.3355C37.5272 51.3355 37.4624 51.3236 37.4057 51.2668L31.6313 45.4934C31.5745 45.4366 31.5626 45.372 31.5626 45.3277C31.5626 45.2834 31.5745 45.2188 31.6313 45.162L33.1745 43.619L34.7734 45.2176C34.6535 45.4659 34.5898 45.7399 34.5898 46.0238C34.5898 46.5195 34.7829 46.9855 35.1334 47.3359L35.3724 47.5748V47.5748C35.7229 47.9253 36.189 48.1184 36.6847 48.1184C36.9687 48.1184 37.2428 48.0548 37.4911 47.9348L39.2805 49.7239L37.7371 51.2669ZM48.8977 45.1757H44.4782L46.0833 39.0064C46.3703 37.9034 47.3669 37.133 48.5068 37.133C49.211 37.133 49.8624 37.4169 50.341 37.9324C51.8089 39.5139 54.1364 39.9616 56.0006 39.0213C56.4661 38.7865 56.9061 38.4982 57.3083 38.164L57.5198 37.9883C57.6474 37.8824 57.8082 37.8338 57.9731 37.8524C58.1376 37.8705 58.2841 37.953 58.3859 38.0848C58.5822 38.3389 58.529 38.7225 58.2674 38.9397L58.0813 39.0943C56.623 40.3055 54.7779 40.9724 52.8857 40.9724C52.4748 40.9724 52.0548 40.9396 51.6374 40.8746C51.2647 40.8162 50.9043 41.0328 50.7798 41.3884L49.4537 45.1757H48.8977Z" fill="black"/>
<path d="M49.295 61.9351C49.0895 61.9351 48.8879 62.0186 48.7426 62.164C48.5973 62.3092 48.5137 62.5108 48.5137 62.7164C48.5137 62.9226 48.5972 63.1234 48.7426 63.2687C48.8879 63.4148 49.0895 63.4977 49.295 63.4977C49.5005 63.4977 49.7021 63.4148 49.8473 63.2687C49.9926 63.1234 50.0763 62.9226 50.0763 62.7164C50.0763 62.5108 49.9927 62.3092 49.8473 62.164C49.7021 62.0186 49.5005 61.9351 49.295 61.9351Z" fill="black"/>
<path d="M39.598 56.8839C39.8035 56.8839 40.005 56.8003 40.1504 56.6549C40.2956 56.5097 40.3793 56.3081 40.3793 56.1026C40.3793 55.8971 40.2957 55.6955 40.1504 55.5502C40.0043 55.4049 39.8035 55.3213 39.598 55.3213C39.3925 55.3213 39.1909 55.4048 39.0448 55.5502C38.8995 55.6955 38.8167 55.8971 38.8167 56.1026C38.8167 56.3081 38.8995 56.5097 39.0448 56.6549C39.1909 56.8003 39.3917 56.8839 39.598 56.8839Z" fill="black"/>
</g>
</svg>
