<svg width="100" height="100" viewBox="0 0 100 100" fill="none" xmlns="http://www.w3.org/2000/svg">
<circle cx="50" cy="50" r="50" fill="#F8F8F8"/>
<g opacity="0.7">
<path d="M66.6522 38.0967H30.0029C30.0029 38.0967 30.0342 59.9262 30.0029 61.1341C30.0026 61.1445 30.0026 61.1549 30.003 61.1652C30.0344 62.3275 30.5106 63.4151 31.3437 64.2277C32.1787 65.0421 33.2808 65.4907 34.4475 65.4907H53.8054C53.9611 65.4907 54.1105 65.4288 54.2206 65.3188L67.0674 52.472C67.1775 52.3618 67.2393 52.2126 67.2393 52.0568V38.6837C67.2393 38.3594 66.9764 38.0967 66.6522 38.0967Z" fill="#E0E0E2"/>
<path d="M40.6219 53.4478H43.0209L44.9446 47.4112L54.2592 38.0967H52.0674L42.7528 47.4112L40.6219 53.4478Z" fill="#C6C5CA"/>
<path d="M66.6522 38.0967H64.6953V54.8441L67.0674 52.472C67.1775 52.3618 67.2393 52.2126 67.2393 52.0568V38.6837C67.2393 38.3594 66.9764 38.0967 66.6522 38.0967Z" fill="#C6C5CA"/>
<path d="M56.7504 53.9286H40.4915C40.1673 53.9286 39.9044 53.6658 39.9044 53.3415C39.9044 53.0172 40.1673 52.7544 40.4915 52.7544H56.7504C57.0747 52.7544 57.3375 53.0172 57.3375 53.3415C57.3375 53.6658 57.0746 53.9286 56.7504 53.9286Z" fill="#3C5156"/>
<path d="M34.4616 56.4801C34.7148 56.4801 34.9628 56.5021 35.2047 56.5422V32.2883C35.2047 31.964 34.9418 31.7012 34.6176 31.7012C32.0715 31.7012 30 33.7726 30 36.3187V60.365C30.3024 58.1706 32.1841 56.4801 34.4616 56.4801Z" fill="#919191"/>
<path d="M61.8712 37.5362L58.3453 34.0103C58.2352 33.9002 58.0859 33.8384 57.9302 33.8384C57.7745 33.8384 57.6252 33.9003 57.515 34.0103L44.5294 46.9958C44.5216 47.0036 44.5147 47.0119 44.5073 47.0202L48.9268 51.3106L61.8711 38.3665C62.1005 38.1371 62.1005 37.7655 61.8712 37.5362Z" fill="#FFD039"/>
<path d="M47.314 49.7449L48.9269 51.3107L61.8711 38.3666C62.1004 38.1372 62.1004 37.7655 61.8711 37.5362L60.6962 36.3613L47.314 49.7449Z" fill="#FFA304"/>
<path d="M44.5089 47.022C44.4569 47.0791 44.4155 47.1463 44.3889 47.2214L42.4672 52.6654C42.392 52.8786 42.4458 53.116 42.6057 53.2759C42.7177 53.388 42.8678 53.4478 43.0208 53.4478C43.0864 53.4478 43.1523 53.4369 43.2162 53.4143L48.6601 51.4926C48.7649 51.4556 48.8543 51.3897 48.9217 51.3058L44.5089 47.022Z" fill="#FFC89F"/>
<path d="M43.0209 53.4478C43.0865 53.4478 43.1524 53.4368 43.2163 53.4143L48.6602 51.4925C48.765 51.4556 48.8543 51.3896 48.9218 51.3057L47.3122 49.7432L42.9474 51.3053L42.4673 52.6652C42.3921 52.8784 42.4459 53.1158 42.6058 53.2757C42.7178 53.3878 42.8678 53.4478 43.0209 53.4478Z" fill="#F7B081"/>
<path d="M43.0209 53.4479C43.0864 53.4479 43.1524 53.4369 43.2163 53.4144L46.6494 52.2025L43.6736 49.248L42.4674 52.6653C42.3922 52.8785 42.446 53.1159 42.6058 53.2759C42.7178 53.388 42.8678 53.4479 43.0209 53.4479Z" fill="#3C5156"/>
<path d="M45.0044 50.5693L42.9474 51.3055L42.4673 52.6654C42.3921 52.8786 42.4459 53.1161 42.6058 53.276C42.7178 53.388 42.8679 53.4478 43.0209 53.4478C43.0865 53.4478 43.1524 53.4369 43.2163 53.4143L46.6494 52.2025L45.0044 50.5693Z" fill="#304144"/>
<path d="M63.7788 35.6284L60.2528 32.1026C60.0235 31.8734 59.6518 31.8734 59.4225 32.1026L57.1014 34.4237L61.4559 38.7817L63.7788 36.4588C63.8888 36.3487 63.9506 36.1994 63.9506 36.0437C63.9506 35.888 63.8888 35.7387 63.7788 35.6284Z" fill="#FF6137"/>
<path d="M59.8663 37.191L60.418 37.7431L61.4563 38.7813L63.7788 36.4588C63.8888 36.3487 63.9506 36.1995 63.9506 36.0437C63.9506 35.888 63.8888 35.7387 63.7788 35.6285L62.6038 34.4536L59.8663 37.191Z" fill="#E04F32"/>
<path d="M65.3573 32.3487L63.5327 30.5242C63.1946 30.1862 62.7449 30 62.2668 30C61.7887 30 61.3391 30.1862 61.001 30.5242L59.8385 31.6867L59.4224 32.1028L58.9993 32.5259L63.3636 36.874L63.9869 36.2507L65.3572 34.8804C65.6953 34.5423 65.8814 34.0926 65.8814 33.6145C65.8814 33.1364 65.6953 32.6869 65.3573 32.3487Z" fill="#546F7A"/>
<path d="M59.0066 32.5186L58.9994 32.5257L60.3015 33.8229L59.0066 32.5186Z" fill="#475D63"/>
<path d="M65.3573 32.3485L63.9174 30.9087C64.1529 31.2217 64.2821 31.6008 64.2821 32.0008C64.2821 32.4842 64.096 32.9388 63.7579 33.2807L62.3876 34.6663L61.7724 35.2884L63.3639 36.874L63.9871 36.2506L65.3574 34.8803C65.6955 34.5423 65.8817 34.0926 65.8817 33.6145C65.8817 33.1363 65.6953 32.6867 65.3573 32.3485Z" fill="#475D63"/>
<path d="M69.6375 48.7537C69.4181 48.6628 69.1656 48.713 68.9976 48.8809L49.0091 68.8695C48.8412 69.0374 48.791 69.2899 48.8818 69.5093C48.9727 69.7287 49.1868 69.8717 49.4242 69.8717H69.4129C69.7371 69.8717 70 69.6089 70 69.2846V49.2962C69.9999 49.0587 69.8568 48.8445 69.6375 48.7537ZM58.7524 65.1227L65.1685 58.7066V65.1227H58.7524V65.1227Z" fill="#FFCA10"/>
<path d="M69.6375 48.7537C69.4181 48.6628 69.1656 48.713 68.9977 48.8809L67.4558 50.4228V69.8718H69.4127C69.7369 69.8718 69.9998 69.609 69.9998 69.2847V49.2962C69.9999 49.0587 69.8568 48.8445 69.6375 48.7537Z" fill="#FFA304"/>
<path d="M69.9999 55.8931H67.7426C67.4183 55.8931 67.1555 56.1559 67.1555 56.4802C67.1555 56.8045 67.4183 57.0673 67.7426 57.0673H69.9999V55.8931Z" fill="#C96E14"/>
<path d="M69.9999 58.8364H67.7425C67.4182 58.8364 67.1554 59.0992 67.1554 59.4235C67.1554 59.7478 67.4182 60.0106 67.7425 60.0106H69.9999V58.8364Z" fill="#C96E14"/>
<path d="M69.9999 61.7798H67.7425C67.4182 61.7798 67.1554 62.0426 67.1554 62.3669C67.1554 62.6912 67.4182 62.954 67.7425 62.954H69.9999V61.7798Z" fill="#C96E14"/>
<path d="M69.9999 64.7231H67.7425C67.4182 64.7231 67.1554 64.986 67.1554 65.3103C67.1554 65.6345 67.4182 65.8974 67.7425 65.8974H69.9999V64.7231Z" fill="#C96E14"/>
</g>
</svg>
