<svg width="20" height="20" viewBox="0 0 20 20" fill="none" xmlns="http://www.w3.org/2000/svg">
<path d="M19.6576 3.57713C19.4756 1.87157 18.1285 0.524271 16.4227 0.342394C12.1451 -0.114131 7.85492 -0.114131 3.57742 0.342394C1.87164 0.524424 0.524445 1.87157 0.342407 3.57713C-0.114136 7.85445 -0.114136 12.1446 0.342407 16.4219C0.524445 18.1276 1.87164 19.4748 3.57727 19.6568C7.85477 20.1133 12.1451 20.1133 16.4227 19.6568C18.1285 19.4748 19.4756 18.1276 19.6576 16.4219C20.1141 12.1446 20.1141 7.85461 19.6576 3.57713Z" fill="url(#paint0_radial_22_43)"/>
<path d="M18.5699 4.3007C18.4085 2.78724 17.2131 1.59176 15.6994 1.43018C11.9037 1.02523 8.0966 1.02523 4.30083 1.43018C2.78731 1.59176 1.59178 2.78724 1.43019 4.3007C1.02522 8.09633 1.02522 11.9032 1.43019 15.6987C1.59178 17.2123 2.78731 18.4078 4.30083 18.5692C8.0966 18.9743 11.9037 18.9743 15.6993 18.5692C17.213 18.4078 18.4085 17.2123 18.5699 15.6987C18.9751 11.9032 18.9751 8.09633 18.5699 4.3007Z" fill="url(#paint1_linear_22_43)"/>
<path d="M0.299316 16.0063C0.313049 16.1446 0.32724 16.2828 0.342041 16.4211C0.524078 18.1266 1.87128 19.4738 3.57706 19.6558C7.85455 20.1123 12.1449 20.1123 16.4224 19.6558C18.1281 19.4738 19.4752 18.1266 19.6572 16.4211C19.672 16.2828 19.6862 16.1446 19.7001 16.0063H0.299316Z" fill="url(#paint2_linear_22_43)"/>
<path d="M19.6575 16.4229C19.9029 14.1245 20.0161 11.8225 19.9978 9.52083L15.4262 4.94948C14.8551 4.2975 14.0209 3.89056 13.0407 3.85532C11.0248 3.78269 9.00259 3.78635 6.98645 3.85562C5.31195 3.9133 4.14099 5.03874 3.8407 6.69288C3.78775 6.98492 3.75601 7.28078 3.71436 7.57496V12.4243C3.7374 12.5815 3.77127 12.7379 3.7818 12.8959C3.84894 13.9021 4.26245 14.7638 4.92453 15.3469L9.57663 19.9986C11.8597 20.0146 14.1428 19.9011 16.4226 19.6578C18.1284 19.4757 19.4755 18.1286 19.6575 16.4229Z" fill="url(#paint3_linear_22_43)"/>
<path d="M19.6574 16.4212C19.4756 18.1266 18.1281 19.474 16.4226 19.6559C14.1431 19.8991 11.8594 20.0128 9.57672 19.9968L4.93164 15.3519C5.47012 15.8232 6.17203 16.1102 6.98654 16.1409C9.00223 16.2166 11.0249 16.2146 13.0406 16.1419C14.8637 16.076 16.183 14.7268 16.2399 12.9037C16.3007 10.9681 16.3007 9.02736 16.2399 7.09171C16.214 6.25068 15.9187 5.51066 15.4292 4.95068L19.9979 9.51914C20.0159 11.8205 19.9026 14.1228 19.6574 16.4212Z" fill="url(#paint4_linear_22_43)"/>
<path d="M12.3602 7.83458C11.7746 7.19694 10.9343 6.79688 10.0003 6.79688C8.2312 6.79688 6.79688 8.23114 6.79688 10.0002C6.79688 10.9341 7.19696 11.7744 7.83463 12.36L15.2463 19.7714C15.6386 19.7372 16.0309 19.6992 16.4229 19.6574C18.1287 19.4754 19.4759 18.1282 19.6579 16.4225C19.6997 16.0305 19.7377 15.6382 19.7719 15.2459L12.3602 7.83458Z" fill="url(#paint5_linear_22_43)"/>
<path d="M19.9613 12.154L13.9964 6.18938C13.8572 6.00674 13.6379 5.88818 13.3906 5.88818C12.9698 5.88818 12.6284 6.22936 12.6284 6.65033C12.6284 6.89766 12.747 7.11692 12.9296 7.25608L19.8547 14.181C19.9017 13.5055 19.9372 12.8297 19.9613 12.154Z" fill="url(#paint6_linear_22_43)"/>
<path d="M3.71436 7.57496C3.75601 7.28078 3.78775 6.98492 3.8407 6.69288C4.14084 5.03874 5.31195 3.9133 6.98645 3.85562C9.00259 3.78635 11.0248 3.78269 13.0407 3.85532C14.8632 3.92093 16.1831 5.27036 16.24 7.09341C16.3006 9.02921 16.3006 10.9697 16.24 12.9056C16.1831 14.7286 14.8636 16.0779 13.0408 16.1436C11.025 16.2164 9.00229 16.2183 6.9866 16.1426C5.16379 16.0741 3.90372 14.7216 3.7818 12.8958C3.77127 12.7379 3.7374 12.5813 3.71436 12.4242C3.71436 10.8077 3.71436 9.19126 3.71436 7.57496ZM10.0016 15.0632C10.9241 15.0632 11.8476 15.0908 12.7689 15.0568C14.2135 15.0033 15.102 14.1412 15.1357 12.698C15.1775 10.8999 15.1775 9.09925 15.1357 7.30092C15.102 5.85811 14.2129 4.97588 12.7689 4.94521C10.9362 4.90645 9.10147 4.90676 7.26874 4.94521C5.83578 4.97527 4.94467 5.83964 4.90576 7.26659C4.85632 9.0875 4.85632 10.9116 4.90576 12.7325C4.94467 14.1593 5.83578 15.0037 7.26889 15.0568C8.17862 15.0907 9.09064 15.0632 10.0016 15.0632Z" fill="url(#paint7_linear_22_43)"/>
<path d="M3.71436 7.57496C3.75601 7.28078 3.78775 6.98492 3.8407 6.69288C4.14084 5.03874 5.31195 3.9133 6.98645 3.85562C9.00259 3.78635 11.0248 3.78269 13.0407 3.85532C14.8632 3.92093 16.1831 5.27036 16.24 7.09341C16.3006 9.02921 16.3006 10.9697 16.24 12.9056C16.1831 14.7286 14.8636 16.0779 13.0408 16.1436C11.025 16.2164 9.00229 16.2183 6.9866 16.1426C5.16379 16.0741 3.90372 14.7216 3.7818 12.8958C3.77127 12.7379 3.7374 12.5813 3.71436 12.4242C3.71436 10.8077 3.71436 9.19126 3.71436 7.57496ZM10.0016 15.0632C10.9241 15.0632 11.8476 15.0908 12.7689 15.0568C14.2135 15.0033 15.102 14.1412 15.1357 12.698C15.1775 10.8999 15.1775 9.09925 15.1357 7.30092C15.102 5.85811 14.2129 4.97588 12.7689 4.94521C10.9362 4.90645 9.10147 4.90676 7.26874 4.94521C5.83578 4.97527 4.94467 5.83964 4.90576 7.26659C4.85632 9.0875 4.85632 10.9116 4.90576 12.7325C4.94467 14.1593 5.83578 15.0037 7.26889 15.0568C8.17862 15.0907 9.09064 15.0632 10.0016 15.0632Z" fill="white"/>
<path d="M10.0003 6.79639C8.2312 6.79639 6.79688 8.2305 6.79688 9.99954C6.79688 11.7687 8.2312 13.2028 10.0003 13.2028C11.7696 13.2028 13.2037 11.7687 13.2037 9.99954C13.2037 8.2305 11.7696 6.79639 10.0003 6.79639ZM10.0003 12.1C8.84018 12.1 7.89978 11.1596 7.89978 9.99954C7.89978 8.83946 8.84018 7.8991 10.0003 7.8991C11.1604 7.8991 12.1008 8.83946 12.1008 9.99954C12.1008 11.1596 11.1604 12.1 10.0003 12.1Z" fill="white"/>
<path d="M14.1526 6.64984C14.1526 7.07066 13.8114 7.41183 13.3906 7.41183C12.9698 7.41183 12.6284 7.07066 12.6284 6.64984C12.6284 6.22887 12.9698 5.8877 13.3906 5.8877C13.8114 5.8877 14.1526 6.22887 14.1526 6.64984Z" fill="white"/>
<defs>
<radialGradient id="paint0_radial_22_43" cx="0" cy="0" r="1" gradientUnits="userSpaceOnUse" gradientTransform="translate(4.09989 17.4777) scale(22.0565 22.0556)">
<stop stop-color="#FAE100"/>
<stop offset="0.0544" stop-color="#FADC04"/>
<stop offset="0.1167" stop-color="#FBCE0E"/>
<stop offset="0.1829" stop-color="#FCB720"/>
<stop offset="0.2514" stop-color="#FE9838"/>
<stop offset="0.3054" stop-color="#FF7950"/>
<stop offset="0.4922" stop-color="#FF1C74"/>
<stop offset="1" stop-color="#6C1CD1"/>
</radialGradient>
<linearGradient id="paint1_linear_22_43" x1="7.67095" y1="8.68967" x2="-26.2108" y2="-10.3696" gradientUnits="userSpaceOnUse">
<stop stop-color="#A1B5D8" stop-opacity="0"/>
<stop offset="0.3094" stop-color="#90A2BD" stop-opacity="0.309804"/>
<stop offset="0.7554" stop-color="#7C8B9C" stop-opacity="0.756863"/>
<stop offset="1" stop-color="#748290"/>
</linearGradient>
<linearGradient id="paint2_linear_22_43" x1="9.99965" y1="17.6532" x2="9.99965" y2="20.7706" gradientUnits="userSpaceOnUse">
<stop stop-color="#FAE100" stop-opacity="0"/>
<stop offset="0.3068" stop-color="#FCA800" stop-opacity="0.305882"/>
<stop offset="0.6275" stop-color="#FE7300" stop-opacity="0.627451"/>
<stop offset="0.8685" stop-color="#FF5200" stop-opacity="0.866667"/>
<stop offset="1" stop-color="#FF4500"/>
</linearGradient>
<linearGradient id="paint3_linear_22_43" x1="8.86211" y1="8.8345" x2="3.91263" y2="3.88482" gradientUnits="userSpaceOnUse">
<stop stop-color="#833AB4" stop-opacity="0"/>
<stop offset="1" stop-color="#833AB4"/>
</linearGradient>
<linearGradient id="paint4_linear_22_43" x1="13.7069" y1="18.2908" x2="11.2366" y2="6.64479" gradientUnits="userSpaceOnUse">
<stop stop-color="#833AB4" stop-opacity="0"/>
<stop offset="1" stop-color="#833AB4"/>
</linearGradient>
<linearGradient id="paint5_linear_22_43" x1="14.6474" y1="14.6471" x2="4.72496" y2="4.72424" gradientUnits="userSpaceOnUse">
<stop stop-color="#833AB4" stop-opacity="0"/>
<stop offset="1" stop-color="#833AB4"/>
</linearGradient>
<linearGradient id="paint6_linear_22_43" x1="15.3832" y1="8.6428" x2="12.102" y2="5.36152" gradientUnits="userSpaceOnUse">
<stop stop-color="#833AB4" stop-opacity="0"/>
<stop offset="1" stop-color="#833AB4"/>
</linearGradient>
<linearGradient id="paint7_linear_22_43" x1="13.9709" y1="6.05733" x2="5.8808" y2="14.1478" gradientUnits="userSpaceOnUse">
<stop stop-color="#833AB4"/>
<stop offset="0.0922" stop-color="#9C3495"/>
<stop offset="0.2927" stop-color="#DC2546"/>
<stop offset="0.392" stop-color="#FD1D1D"/>
<stop offset="0.5589" stop-color="#FC6831"/>
<stop offset="0.6887" stop-color="#FC9B40"/>
<stop offset="0.7521" stop-color="#FCAF45"/>
<stop offset="0.7806" stop-color="#FDB750"/>
<stop offset="0.8656" stop-color="#FECB6A"/>
<stop offset="0.9415" stop-color="#FFD87A"/>
<stop offset="1" stop-color="#FFDC80"/>
</linearGradient>
</defs>
</svg>
