<svg width="20" height="20" viewBox="0 0 20 20" fill="none" xmlns="http://www.w3.org/2000/svg">
<path d="M16.4227 19.6576C12.1452 20.1141 7.85477 20.1141 3.57727 19.6576C1.87164 19.4756 0.524445 18.1284 0.342407 16.4226C-0.114136 12.1451 -0.114136 7.85477 0.342407 3.57727C0.524445 1.87164 1.87164 0.524445 3.57727 0.342407C7.85477 -0.114136 12.1451 -0.114136 16.4226 0.342407C18.1284 0.524445 19.4756 1.87164 19.6576 3.57727C20.1141 7.85477 20.1141 12.1451 19.6576 16.4226C19.4756 18.1284 18.1285 19.4756 16.4227 19.6576Z" fill="url(#paint0_linear_22_59)"/>
<path d="M18.5699 4.30083C18.4085 2.78731 17.2131 1.59178 15.6994 1.43019C11.9037 1.02522 8.0966 1.02522 4.30083 1.43019C2.78731 1.59178 1.59178 2.78731 1.43019 4.30083C1.02522 8.0966 1.02522 11.9037 1.43019 15.6993C1.59178 17.213 2.78731 18.4085 4.30083 18.5699C8.0966 18.9751 11.9037 18.9751 15.6993 18.5699C17.213 18.4085 18.4085 17.213 18.5699 15.6993C18.9751 11.9037 18.9751 8.0966 18.5699 4.30083Z" fill="url(#paint1_linear_22_59)"/>
<path d="M0.299805 16.0078C0.313538 16.1461 0.327728 16.2843 0.342529 16.4225C0.524567 18.1282 1.87177 19.4754 3.57755 19.6574C7.85504 20.114 12.1454 20.114 16.4229 19.6574C18.1286 19.4754 19.4757 18.1282 19.6577 16.4225C19.6725 16.2843 19.6867 16.1461 19.7006 16.0078H0.299805Z" fill="url(#paint2_linear_22_59)"/>
<path d="M19.9959 9.29736L15.8445 5.14606C15.3792 5.41202 14.9692 5.55957 14.6604 5.64136C14.4867 5.6879 14.345 5.71323 14.243 5.72711C13.7749 5.24722 13.1212 4.94922 12.3976 4.94922C10.974 4.94922 9.81967 6.10339 9.81967 7.52734C9.81967 7.57877 9.82104 7.62958 9.8244 7.68024C9.83127 7.80368 9.84698 7.92499 9.87125 8.04294C9.27692 8.03409 7.34515 7.8754 5.50281 6.29611C5.50266 6.29611 5.50266 6.29596 5.50266 6.29596H5.5025L4.63367 5.42697C4.63367 5.42697 3.61438 7.20599 5.11295 8.55594C5.17871 8.62933 5.25104 8.70181 5.33023 8.77307C5.33649 8.78009 5.34305 8.78696 5.3493 8.79398C5.15262 8.7807 4.56104 8.7218 4.21863 8.47995C4.21863 8.47995 4.14981 9.56729 5.05573 10.3678L5.78723 11.1055C5.56445 11.124 5.31802 11.1196 5.14667 11.0445C5.14667 11.0445 5.29834 11.6886 5.88458 12.204L6.90936 13.2341C6.29459 13.5923 5.21838 14.0404 3.80176 13.926L10.0183 20.0002C12.1543 19.9996 14.2902 19.8854 16.4229 19.6578C18.1287 19.4757 19.4759 18.1285 19.6579 16.4229C19.9111 14.0502 20.0235 11.6735 19.9959 9.29736Z" fill="url(#paint3_linear_22_59)"/>
<path d="M16.1984 6.14734C15.7559 6.37881 15.0894 6.48578 14.8685 6.5166C14.8666 6.50592 14.8648 6.4957 14.863 6.48547C15.6142 6.02084 15.8441 5.14606 15.8441 5.14606C15.3789 5.41202 14.9689 5.55957 14.66 5.64136C14.4864 5.6879 14.3446 5.71307 14.2427 5.72711C13.7746 5.24707 13.1209 4.94922 12.3973 4.94922C10.9737 4.94922 9.81934 6.10324 9.81934 7.52734C9.81934 7.57861 9.82071 7.62958 9.82407 7.68008C9.83093 7.80353 9.84665 7.92484 9.87091 8.04279C9.18182 8.03256 6.69449 7.82123 4.63333 5.42697C4.63333 5.42697 3.48557 7.42953 5.41519 8.79749C5.41519 8.79749 4.63333 8.77307 4.21829 8.47995C4.21829 8.47995 4.09622 10.4096 6.31866 11.0199C6.31866 11.0199 5.53726 11.2155 5.14618 11.0445C5.14618 11.0445 5.53711 12.7053 7.491 12.8276C7.491 12.8276 6.08963 14.1106 3.80127 13.926C4.92676 14.6385 6.26114 15.051 7.6918 15.051C11.7145 15.051 14.9756 11.79 14.9756 7.76736C14.9756 7.71716 14.9751 7.66696 14.9741 7.61676C14.9751 7.58701 14.9756 7.5574 14.9756 7.52734C14.9756 7.50644 14.9751 7.48553 14.9748 7.46463C15.7185 6.96902 16.1984 6.14734 16.1984 6.14734Z" fill="white"/>
<defs>
<linearGradient id="paint0_linear_22_59" x1="6.64039" y1="2.81196" x2="11.699" y2="13.635" gradientUnits="userSpaceOnUse">
<stop stop-color="#00C3FF"/>
<stop offset="1" stop-color="#00B0ED"/>
</linearGradient>
<linearGradient id="paint1_linear_22_59" x1="14.2299" y1="12.2692" x2="-14.8275" y2="-3.31831" gradientUnits="userSpaceOnUse">
<stop stop-color="#00B0ED" stop-opacity="0"/>
<stop offset="1" stop-color="#00A2CE"/>
</linearGradient>
<linearGradient id="paint2_linear_22_59" x1="10.0001" y1="17.0851" x2="10.0001" y2="19.7058" gradientUnits="userSpaceOnUse">
<stop stop-color="#00B0ED" stop-opacity="0"/>
<stop offset="1" stop-color="#00A2CE"/>
</linearGradient>
<linearGradient id="paint3_linear_22_59" x1="19.1182" y1="18.8311" x2="9.34759" y2="9.06054" gradientUnits="userSpaceOnUse">
<stop stop-color="#00B0ED" stop-opacity="0"/>
<stop offset="1" stop-color="#00A2CE"/>
</linearGradient>
</defs>
</svg>
